<svg width="166" height="51" viewBox="0 0 166 51" fill="none" xmlns="http://www.w3.org/2000/svg">
<g filter="url(#filter0_b_26_143)">
<path d="M62.44 29.168C61.272 29.168 60.216 28.968 59.272 28.568C58.344 28.168 57.608 27.592 57.064 26.84C56.52 26.088 56.24 25.2 56.224 24.176H59.824C59.872 24.864 60.112 25.408 60.544 25.808C60.992 26.208 61.6 26.408 62.368 26.408C63.152 26.408 63.768 26.224 64.216 25.856C64.664 25.472 64.888 24.976 64.888 24.368C64.888 23.872 64.736 23.464 64.432 23.144C64.128 22.824 63.744 22.576 63.28 22.4C62.832 22.208 62.208 22 61.408 21.776C60.32 21.456 59.432 21.144 58.744 20.84C58.072 20.52 57.488 20.048 56.992 19.424C56.512 18.784 56.272 17.936 56.272 16.88C56.272 15.888 56.52 15.024 57.016 14.288C57.512 13.552 58.208 12.992 59.104 12.608C60 12.208 61.024 12.008 62.176 12.008C63.904 12.008 65.304 12.432 66.376 13.28C67.464 14.112 68.064 15.28 68.176 16.784H64.48C64.448 16.208 64.2 15.736 63.736 15.368C63.288 14.984 62.688 14.792 61.936 14.792C61.28 14.792 60.752 14.96 60.352 15.296C59.968 15.632 59.776 16.12 59.776 16.76C59.776 17.208 59.92 17.584 60.208 17.888C60.512 18.176 60.88 18.416 61.312 18.608C61.76 18.784 62.384 18.992 63.184 19.232C64.272 19.552 65.16 19.872 65.848 20.192C66.536 20.512 67.128 20.992 67.624 21.632C68.12 22.272 68.368 23.112 68.368 24.152C68.368 25.048 68.136 25.88 67.672 26.648C67.208 27.416 66.528 28.032 65.632 28.496C64.736 28.944 63.672 29.168 62.44 29.168ZM70.417 22.304C70.417 20.96 70.681 19.768 71.209 18.728C71.753 17.688 72.481 16.888 73.393 16.328C74.321 15.768 75.353 15.488 76.489 15.488C77.481 15.488 78.345 15.688 79.081 16.088C79.833 16.488 80.433 16.992 80.881 17.6V15.704H84.265V29H80.881V27.056C80.449 27.68 79.849 28.2 79.081 28.616C78.329 29.016 77.457 29.216 76.465 29.216C75.345 29.216 74.321 28.928 73.393 28.352C72.481 27.776 71.753 26.968 71.209 25.928C70.681 24.872 70.417 23.664 70.417 22.304ZM80.881 22.352C80.881 21.536 80.721 20.84 80.401 20.264C80.081 19.672 79.649 19.224 79.105 18.92C78.561 18.6 77.977 18.44 77.353 18.44C76.729 18.44 76.153 18.592 75.625 18.896C75.097 19.2 74.665 19.648 74.329 20.24C74.009 20.816 73.849 21.504 73.849 22.304C73.849 23.104 74.009 23.808 74.329 24.416C74.665 25.008 75.097 25.464 75.625 25.784C76.169 26.104 76.745 26.264 77.353 26.264C77.977 26.264 78.561 26.112 79.105 25.808C79.649 25.488 80.081 25.04 80.401 24.464C80.721 23.872 80.881 23.168 80.881 22.352ZM93.0906 25.904L96.4506 15.704H100.027L95.1066 29H91.0266L86.1306 15.704H89.7306L93.0906 25.904ZM103.618 14.12C103.026 14.12 102.53 13.936 102.13 13.568C101.746 13.184 101.554 12.712 101.554 12.152C101.554 11.592 101.746 11.128 102.13 10.76C102.53 10.376 103.026 10.184 103.618 10.184C104.21 10.184 104.698 10.376 105.082 10.76C105.482 11.128 105.682 11.592 105.682 12.152C105.682 12.712 105.482 13.184 105.082 13.568C104.698 13.936 104.21 14.12 103.618 14.12ZM105.274 15.704V29H101.914V15.704H105.274ZM115.962 15.512C117.546 15.512 118.826 16.016 119.802 17.024C120.778 18.016 121.266 19.408 121.266 21.2V29H117.906V21.656C117.906 20.6 117.642 19.792 117.114 19.232C116.586 18.656 115.866 18.368 114.954 18.368C114.026 18.368 113.29 18.656 112.746 19.232C112.218 19.792 111.954 20.6 111.954 21.656V29H108.594V15.704H111.954V17.36C112.402 16.784 112.97 16.336 113.658 16.016C114.362 15.68 115.13 15.512 115.962 15.512ZM129.669 15.488C130.661 15.488 131.533 15.688 132.285 16.088C133.037 16.472 133.629 16.976 134.061 17.6V15.704H137.445V29.096C137.445 30.328 137.197 31.424 136.701 32.384C136.205 33.36 135.461 34.128 134.469 34.688C133.477 35.264 132.277 35.552 130.869 35.552C128.981 35.552 127.429 35.112 126.213 34.232C125.013 33.352 124.333 32.152 124.173 30.632H127.509C127.685 31.24 128.061 31.72 128.637 32.072C129.229 32.44 129.941 32.624 130.773 32.624C131.749 32.624 132.541 32.328 133.149 31.736C133.757 31.16 134.061 30.28 134.061 29.096V27.032C133.629 27.656 133.029 28.176 132.261 28.592C131.509 29.008 130.645 29.216 129.669 29.216C128.549 29.216 127.525 28.928 126.597 28.352C125.669 27.776 124.933 26.968 124.389 25.928C123.861 24.872 123.597 23.664 123.597 22.304C123.597 20.96 123.861 19.768 124.389 18.728C124.933 17.688 125.661 16.888 126.573 16.328C127.501 15.768 128.533 15.488 129.669 15.488ZM134.061 22.352C134.061 21.536 133.901 20.84 133.581 20.264C133.261 19.672 132.829 19.224 132.285 18.92C131.741 18.6 131.157 18.44 130.533 18.44C129.909 18.44 129.333 18.592 128.805 18.896C128.277 19.2 127.845 19.648 127.509 20.24C127.189 20.816 127.029 21.504 127.029 22.304C127.029 23.104 127.189 23.808 127.509 24.416C127.845 25.008 128.277 25.464 128.805 25.784C129.349 26.104 129.925 26.264 130.533 26.264C131.157 26.264 131.741 26.112 132.285 25.808C132.829 25.488 133.261 25.04 133.581 24.464C133.901 23.872 134.061 23.168 134.061 22.352Z" fill="white"/>
</g>
<path d="M20.9418 12.7387C19.8453 12.9573 18.8806 13.6026 18.2598 14.5325C17.6391 15.4624 17.4132 16.6008 17.6318 17.6973C17.8504 18.7938 18.4957 19.7585 19.4256 20.3792C20.3555 21 21.4939 21.2259 22.5904 21.0072C23.6868 20.7886 24.6515 20.1434 25.2723 19.2135C25.893 18.2836 26.1189 17.1452 25.9003 16.0487C25.6817 14.9522 25.0365 13.9875 24.1066 13.3668C23.1766 12.746 22.0382 12.5201 20.9418 12.7387Z" fill="white"/>
<path fill-rule="evenodd" clip-rule="evenodd" d="M0.686917 11.7622C0.307372 9.85856 1.54346 8.0092 3.44522 7.63002L35.1412 1.31039C37.043 0.931211 38.8942 2.16693 39.2734 4.06869L42.8453 21.9838C43.2249 23.8874 41.9888 25.7368 40.087 26.1159L8.39102 32.4356C7.93859 32.5258 7.47282 32.526 7.0203 32.4362C6.56779 32.3464 6.13739 32.1684 5.75369 31.9122C5.36998 31.6561 5.04049 31.3269 4.78401 30.9434C4.52753 30.56 4.34909 30.1297 4.25888 29.6773L0.686917 11.7622ZM14.8757 18.2468C14.5113 16.4194 14.8878 14.522 15.9224 12.9722C16.957 11.4223 18.5648 10.3469 20.3923 9.98255C22.2197 9.61819 24.1171 9.9947 25.6669 11.0293C27.2168 12.0638 28.2922 13.6717 28.6566 15.4992C29.0209 17.3266 28.6444 19.224 27.6098 20.7738C26.5753 22.3237 24.9674 23.3991 23.14 23.7634C21.3125 24.1278 19.4151 23.7513 17.8653 22.7167C16.3154 21.6821 15.24 20.0743 14.8757 18.2468ZM33.8941 13.022C33.5286 13.0949 33.2071 13.31 33.0002 13.6199C32.7932 13.9299 32.7179 14.3094 32.7908 14.6749L32.7937 14.6896C32.9454 15.4503 33.6859 15.9445 34.4466 15.7929L34.4613 15.7899C34.8268 15.7171 35.1484 15.502 35.3553 15.192C35.5622 14.882 35.6375 14.5026 35.5646 14.1371L35.5617 14.1224C35.4888 13.7569 35.2737 13.4353 34.9638 13.2284C34.6538 13.0215 34.2743 12.9462 33.9088 13.0191L33.8941 13.022ZM7.98525 19.6207C7.91238 19.2552 7.98768 18.8757 8.19459 18.5657C8.4015 18.2558 8.72308 18.0407 9.08857 17.9678L9.10327 17.9649C9.46876 17.892 9.84823 17.9673 10.1582 18.1742C10.4682 18.3811 10.6832 18.7027 10.7561 19.0682L10.7591 19.0829C10.8319 19.4484 10.7566 19.8279 10.5497 20.1378C10.3428 20.4478 10.0212 20.6629 9.65573 20.7357L9.64103 20.7387C9.27554 20.8115 8.89607 20.7362 8.5861 20.5293C8.27613 20.3224 8.06105 20.0008 7.98818 19.6354L7.98525 19.6207Z" fill="white"/>
<path d="M6.87345 35.6039C6.50796 35.6768 6.18638 35.8919 5.97947 36.2018C5.77256 36.5118 5.69726 36.8913 5.77013 37.2568C5.843 37.6223 6.05808 37.9438 6.36805 38.1507C6.67802 38.3577 7.05749 38.433 7.42298 38.3601C17.3452 36.3818 27.2196 35.7924 36.8474 36.4576C39.1526 36.617 41.0528 34.5531 40.5905 32.2342L40.2223 30.3876C40.1494 30.0221 39.9344 29.7005 39.6244 29.4936C39.3144 29.2867 38.9349 29.2114 38.5694 29.2843L6.87345 35.6039Z" fill="white"/>
<defs>
<filter id="filter0_b_26_143" x="32.024" y="-14.016" width="129.621" height="73.768" filterUnits="userSpaceOnUse" color-interpolation-filters="sRGB">
<feFlood flood-opacity="0" result="BackgroundImageFix"/>
<feGaussianBlur in="BackgroundImageFix" stdDeviation="12.1"/>
<feComposite in2="SourceAlpha" operator="in" result="effect1_backgroundBlur_26_143"/>
<feBlend mode="normal" in="SourceGraphic" in2="effect1_backgroundBlur_26_143" result="shape"/>
</filter>
</defs>
</svg>
